<svg xmlns="http://www.w3.org/2000/svg" width="320" height="320" viewBox="0 0 320 320" fill="none">
  <rect width="320" height="320" rx="28" fill="#E0F2FE"/>
  <rect x="36" y="36" width="248" height="248" rx="18" fill="white"/>
  <rect x="54" y="54" width="62" height="62" rx="12" fill="#0284C7"/>
  <rect x="66" y="66" width="38" height="38" rx="8" fill="white"/>
  <rect x="78" y="78" width="14" height="14" rx="4" fill="#0284C7"/>
  <rect x="204" y="54" width="62" height="62" rx="12" fill="#0284C7"/>
  <rect x="216" y="66" width="38" height="38" rx="8" fill="white"/>
  <rect x="228" y="78" width="14" height="14" rx="4" fill="#0284C7"/>
  <rect x="54" y="204" width="62" height="62" rx="12" fill="#0284C7"/>
  <rect x="66" y="216" width="38" height="38" rx="8" fill="white"/>
  <rect x="78" y="228" width="14" height="14" rx="4" fill="#0284C7"/>

  <rect x="134" y="134" width="10" height="10" rx="2" fill="#0EA5E9"/>
  <rect x="146" y="134" width="10" height="10" rx="2" fill="#0284C7"/>
  <rect x="158" y="134" width="10" height="10" rx="2" fill="#38BDF8"/>
  <rect x="170" y="134" width="10" height="10" rx="2" fill="#0284C7"/>
  <rect x="182" y="134" width="10" height="10" rx="2" fill="#0EA5E9"/>

  <rect x="134" y="146" width="10" height="10" rx="2" fill="#0284C7"/>
  <rect x="158" y="146" width="10" height="10" rx="2" fill="#0284C7"/>
  <rect x="182" y="146" width="10" height="10" rx="2" fill="#0284C7"/>

  <rect x="134" y="158" width="10" height="10" rx="2" fill="#38BDF8"/>
  <rect x="146" y="158" width="10" height="10" rx="2" fill="#0284C7"/>
  <rect x="158" y="158" width="10" height="10" rx="2" fill="#0EA5E9"/>
  <rect x="170" y="158" width="10" height="10" rx="2" fill="#0284C7"/>
  <rect x="182" y="158" width="10" height="10" rx="2" fill="#38BDF8"/>

  <rect x="134" y="170" width="10" height="10" rx="2" fill="#0284C7"/>
  <rect x="158" y="170" width="10" height="10" rx="2" fill="#0284C7"/>
  <rect x="182" y="170" width="10" height="10" rx="2" fill="#0284C7"/>

  <rect x="134" y="182" width="10" height="10" rx="2" fill="#0EA5E9"/>
  <rect x="146" y="182" width="10" height="10" rx="2" fill="#38BDF8"/>
  <rect x="158" y="182" width="10" height="10" rx="2" fill="#0284C7"/>
  <rect x="170" y="182" width="10" height="10" rx="2" fill="#0EA5E9"/>
  <rect x="182" y="182" width="10" height="10" rx="2" fill="#0284C7"/>

  <rect x="206" y="134" width="10" height="10" rx="2" fill="#0284C7"/>
  <rect x="218" y="146" width="10" height="10" rx="2" fill="#0EA5E9"/>
  <rect x="230" y="158" width="10" height="10" rx="2" fill="#0284C7"/>
  <rect x="242" y="170" width="10" height="10" rx="2" fill="#38BDF8"/>
  <rect x="206" y="182" width="10" height="10" rx="2" fill="#0284C7"/>

  <rect x="122" y="206" width="10" height="10" rx="2" fill="#0284C7"/>
  <rect x="134" y="218" width="10" height="10" rx="2" fill="#0EA5E9"/>
  <rect x="146" y="230" width="10" height="10" rx="2" fill="#0284C7"/>
  <rect x="158" y="242" width="10" height="10" rx="2" fill="#38BDF8"/>
  <rect x="170" y="230" width="10" height="10" rx="2" fill="#0284C7"/>
  <rect x="182" y="218" width="10" height="10" rx="2" fill="#0EA5E9"/>

  <rect x="198" y="206" width="10" height="10" rx="2" fill="#0284C7"/>
  <rect x="210" y="218" width="10" height="10" rx="2" fill="#38BDF8"/>
  <rect x="222" y="230" width="10" height="10" rx="2" fill="#0284C7"/>
  <rect x="234" y="242" width="10" height="10" rx="2" fill="#0EA5E9"/>

  <rect x="122" y="122" width="10" height="10" rx="2" fill="#38BDF8"/>
  <rect x="242" y="122" width="10" height="10" rx="2" fill="#38BDF8"/>
  <rect x="122" y="254" width="10" height="10" rx="2" fill="#38BDF8"/>
  <rect x="254" y="254" width="10" height="10" rx="2" fill="#38BDF8"/>
</svg>
